<svg id="Layer_1" data-name="Layer 1" xmlns="http://www.w3.org/2000/svg" viewBox="0 0 358.23 26.46"><defs><style>.cls-1{fill:#231f20;}</style></defs><title>logo</title><path class="cls-1" d="M8.17,65.8h7.75V84.63h9.7v6.75H8.17Z" transform="translate(-8.17 -65.38)"/><path class="cls-1" d="M28.74,65.8H48.15v6.44H36.49v3H47.88v6.44H36.49v3.26H48.15v6.44H28.74Z" transform="translate(-8.17 -65.38)"/><path class="cls-1" d="M68.07,88.08H58.25l-1,3.3h-8.4L58.28,65.8H68l9.44,25.58h-8.4Zm-7.82-6.44h5.83l-2.91-9Z" transform="translate(-8.17 -65.38)"/><path class="cls-1" d="M78.86,65.8H90.29c8.05,0,14,4.6,14,12.77s-6,12.81-14,12.81H78.86ZM90.29,84.63a5.91,5.91,0,0,0,6.18-6.06c0-3.45-2-6-6.14-6H86.6V84.63Z" transform="translate(-8.17 -65.38)"/><path class="cls-1" d="M107.1,65.8h19.41v6.44H114.85v3h11.39v6.44H114.85v3.26h11.66v6.44H107.1Z" transform="translate(-8.17 -65.38)"/><path class="cls-1" d="M140.52,83.17h-2.8v8.21H130V65.8h13.65c6,0,9.2,4,9.2,8.78a8.24,8.24,0,0,1-4.6,7.75l4.64,9.05H144Zm1.92-10.93h-4.72v4.49h4.72a2.26,2.26,0,1,0,0-4.49Z" transform="translate(-8.17 -65.38)"/><path class="cls-1" d="M171.26,72.55h-6.87V65.8h21.44v6.75H179V91.38h-7.75Z" transform="translate(-8.17 -65.38)"/><path class="cls-1" d="M188.6,65.8H208v6.44H196.35v3h11.39v6.44H196.35v3.26H208v6.44H188.6Z" transform="translate(-8.17 -65.38)"/><path class="cls-1" d="M211.47,65.8h7.75V84.63h9.7v6.75H211.47Z" transform="translate(-8.17 -65.38)"/><path class="cls-1" d="M232,65.8h19.41v6.44H239.79v3h11.39v6.44H239.79v3.26h11.66v6.44H232Z" transform="translate(-8.17 -65.38)"/><path class="cls-1" d="M267.61,65.38c5.94,0,9.47,3,11.24,6.29L272.32,75a5.3,5.3,0,0,0-4.72-2.8,6.41,6.41,0,0,0,0,12.81,7.29,7.29,0,0,0,4.18-1.15V82.75h-4.95V76.39H279.3V86.66a15.19,15.19,0,0,1-11.7,5.18c-7.75,0-14.08-5.06-14.08-13.23S259.86,65.38,267.61,65.38Z" transform="translate(-8.17 -65.38)"/><path class="cls-1" d="M293.32,83.17h-2.8v8.21h-7.75V65.8h13.65c6,0,9.2,4,9.2,8.78a8.24,8.24,0,0,1-4.6,7.75l4.64,9.05h-8.82Zm1.92-10.93h-4.72v4.49h4.72a2.26,2.26,0,1,0,0-4.49Z" transform="translate(-8.17 -65.38)"/><path class="cls-1" d="M325.24,88.08h-9.82l-1,3.3H306l9.43-25.58h9.74l9.44,25.58h-8.4Zm-7.82-6.44h5.83l-2.91-9Z" transform="translate(-8.17 -65.38)"/><path class="cls-1" d="M358.66,75.23l-5.71,16.15h-3.45l-5.71-16.15V91.38H336V65.8h10.7l4.49,13,4.49-13h10.7V91.38h-7.75Z" transform="translate(-8.17 -65.38)"/></svg>